<?xml version="1.0" encoding="utf-8"?>
<svg viewBox="0 0 1024 1024" xmlns="http://www.w3.org/2000/svg" xmlns:xlink="http://www.w3.org/1999/xlink" version="1.1">
<title></title>
<g id="icomoon-ignore">
</g>
<path fill="#BFBFBF" d="M201.076 516.655c0 192.698 132.189 341.644 323.025 341.644 152.669 0 269.033-95.884 295.098-245.76h-90.298c-20.48 101.469-104.262 163.84-208.524 163.84-148.015 0-228.073-126.604-228.073-263.447 0-142.429 86.575-252.276 226.211-252.276 98.676 0 188.975 53.993 210.385 151.738h90.298c-26.996-148.015-146.153-233.658-293.236-233.658-194.56 0-324.887 147.084-324.887 337.92z"></path>
<path fill="none" stroke-linejoin="miter" stroke-linecap="butt" stroke-miterlimit="4" stroke-width="51.2" stroke="#BFBFBF" d="M998.4 512c0 268.631-217.769 486.4-486.4 486.4s-486.4-217.769-486.4-486.4c0-268.631 217.769-486.4 486.4-486.4s486.4 217.769 486.4 486.4z"></path>
</svg>
