<svg version="1.1" xmlns="http://www.w3.org/2000/svg" width="1024" height="1024" viewBox="0 0 1024 1024">
<path fill="none" stroke-linejoin="miter" stroke-linecap="butt" stroke-miterlimit="4" stroke-width="93.0909" stroke="#000" d="M256.533 47.515h510.933c115.439 0 209.019 93.58 209.019 209.019v510.933c0 115.439-93.58 209.019-209.019 209.019h-510.933c-115.439 0-209.019-93.58-209.019-209.019v-510.933c0-115.439 93.58-209.019 209.019-209.019z"></path>
<path fill="none" stroke-linejoin="miter" stroke-linecap="butt" stroke-miterlimit="4" stroke-width="93.0909" stroke="#000" d="M33 305.885h958"></path>
<path fill="#000" d="M336.923 622.765c0 41.438-33.591 75.034-75.034 75.034s-75.034-33.591-75.034-75.034c0-41.438 33.591-75.034 75.034-75.034s75.034 33.591 75.034 75.034z"></path>
<path fill="#000" d="M586.948 622.765c0 41.438-33.591 75.034-75.034 75.034s-75.034-33.591-75.034-75.034c0-41.438 33.591-75.034 75.034-75.034s75.034 33.591 75.034 75.034z"></path>
<path fill="#000" d="M837.153 622.765c0 41.438-33.591 75.034-75.034 75.034s-75.034-33.591-75.034-75.034c0-41.438 33.591-75.034 75.034-75.034s75.034 33.591 75.034 75.034z"></path>
</svg>