<svg width="2400" height="120.00000000000001" xmlns="http://www.w3.org/2000/svg" fill="none">
 <g>
  <line x1="0.64645" y1="119.646" x2="119.646" y2="0.64645" stroke="#000" id="svg_1"/>
  <line x1="43.6464" y1="119.646" x2="162.646" y2="0.64645" stroke="#000" id="svg_2"/>
  <line x1="86.6464" y1="119.646" x2="205.646" y2="0.64645" stroke="#000" id="svg_3"/>
  <line x1="129.646" y1="119.646" x2="248.646" y2="0.64645" stroke="#000" id="svg_4"/>
  <line x1="172.646" y1="119.646" x2="291.646" y2="0.64645" stroke="#000" id="svg_5"/>
  <line x1="215.646" y1="119.646" x2="334.646" y2="0.64645" stroke="#000" id="svg_6"/>
  <line x1="258.646" y1="119.646" x2="377.646" y2="0.64645" stroke="#000" id="svg_7"/>
  <line x1="301.646" y1="119.646" x2="420.646" y2="0.64645" stroke="#000" id="svg_8"/>
  <line x1="344.646" y1="119.646" x2="463.646" y2="0.64645" stroke="#000" id="svg_9"/>
  <line x1="387.646" y1="119.646" x2="506.646" y2="0.64645" stroke="#000" id="svg_10"/>
  <line x1="430.646" y1="119.646" x2="549.646" y2="0.64645" stroke="#000" id="svg_11"/>
  <line x1="473.646" y1="119.646" x2="592.646" y2="0.64645" stroke="#000" id="svg_12"/>
  <line x1="516.646" y1="119.646" x2="635.646" y2="0.64645" stroke="#000" id="svg_13"/>
  <line x1="559.646" y1="119.646" x2="678.646" y2="0.64645" stroke="#000" id="svg_14"/>
  <line x1="602.646" y1="119.646" x2="721.646" y2="0.64645" stroke="#000" id="svg_15"/>
  <line x1="645.646" y1="119.646" x2="764.646" y2="0.64645" stroke="#000" id="svg_16"/>
  <line x1="688.646" y1="119.646" x2="807.646" y2="0.64645" stroke="#000" id="svg_17"/>
  <line x1="731.646" y1="119.646" x2="850.646" y2="0.64645" stroke="#000" id="svg_18"/>
  <line x1="774.646" y1="119.646" x2="893.646" y2="0.64645" stroke="#000" id="svg_19"/>
  <line x1="817.646" y1="119.646" x2="936.646" y2="0.64645" stroke="#000" id="svg_20"/>
  <line x1="860.646" y1="119.646" x2="979.646" y2="0.64645" stroke="#000" id="svg_21"/>
  <line x1="903.646" y1="119.646" x2="1022.65" y2="0.64645" stroke="#000" id="svg_22"/>
  <line x1="946.646" y1="119.646" x2="1065.65" y2="0.64645" stroke="#000" id="svg_23"/>
  <line x1="989.646" y1="119.646" x2="1108.65" y2="0.64645" stroke="#000" id="svg_24"/>
  <line x1="1032.65" y1="119.646" x2="1151.65" y2="0.64645" stroke="#000" id="svg_25"/>
  <line x1="1075.65" y1="119.646" x2="1194.65" y2="0.64645" stroke="#000" id="svg_26"/>
  <line x1="1118.65" y1="119.646" x2="1237.65" y2="0.64645" stroke="#000" id="svg_27"/>
  <line x1="1163.73141" y1="118.10753" x2="1282.73096" y2="-0.89202" stroke="#000" id="svg_28"/>
  <line x1="1206.73136" y1="118.10753" x2="1325.73096" y2="-0.89202" stroke="#000" id="svg_29"/>
  <line x1="1249.73136" y1="118.10753" x2="1368.73096" y2="-0.89202" stroke="#000" id="svg_30"/>
  <line x1="1292.73096" y1="118.10753" x2="1411.73096" y2="-0.89202" stroke="#000" id="svg_31"/>
  <line x1="1335.73096" y1="118.10753" x2="1454.73096" y2="-0.89202" stroke="#000" id="svg_32"/>
  <line x1="1378.73096" y1="118.10753" x2="1497.73096" y2="-0.89202" stroke="#000" id="svg_33"/>
  <line x1="1421.73096" y1="118.10753" x2="1540.73096" y2="-0.89202" stroke="#000" id="svg_34"/>
  <line x1="1464.73096" y1="118.10753" x2="1583.73096" y2="-0.89202" stroke="#000" id="svg_35"/>
  <line x1="1507.73096" y1="118.10753" x2="1626.73096" y2="-0.89202" stroke="#000" id="svg_36"/>
  <line x1="1550.73096" y1="118.10753" x2="1669.73096" y2="-0.89202" stroke="#000" id="svg_37"/>
  <line x1="1593.73096" y1="118.10753" x2="1712.73096" y2="-0.89202" stroke="#000" id="svg_38"/>
  <line x1="1636.73096" y1="118.10753" x2="1755.73096" y2="-0.89202" stroke="#000" id="svg_39"/>
  <line x1="1679.73096" y1="118.10753" x2="1798.73096" y2="-0.89202" stroke="#000" id="svg_40"/>
  <line x1="1722.73096" y1="118.10753" x2="1841.73096" y2="-0.89202" stroke="#000" id="svg_41"/>
  <line x1="1765.73096" y1="118.10753" x2="1884.73096" y2="-0.89202" stroke="#000" id="svg_42"/>
  <line x1="1808.73096" y1="118.10753" x2="1927.73096" y2="-0.89202" stroke="#000" id="svg_43"/>
  <line x1="1851.73096" y1="118.10753" x2="1970.73096" y2="-0.89202" stroke="#000" id="svg_44"/>
  <line x1="1894.73096" y1="118.10753" x2="2013.73096" y2="-0.89202" stroke="#000" id="svg_45"/>
  <line x1="1937.73096" y1="118.10753" x2="2056.73096" y2="-0.89202" stroke="#000" id="svg_46"/>
  <line x1="1980.73096" y1="118.10753" x2="2099.73096" y2="-0.89202" stroke="#000" id="svg_47"/>
  <line x1="2023.73096" y1="118.10753" x2="2142.73096" y2="-0.89202" stroke="#000" id="svg_48"/>
  <line x1="2066.73096" y1="118.10753" x2="2185.73496" y2="-0.89202" stroke="#000" id="svg_49"/>
  <line x1="2109.73096" y1="118.10753" x2="2228.73496" y2="-0.89202" stroke="#000" id="svg_50"/>
  <line x1="2152.73096" y1="118.10753" x2="2271.73496" y2="-0.89202" stroke="#000" id="svg_51"/>
  <line x1="2195.73496" y1="118.10753" x2="2314.73496" y2="-0.89202" stroke="#000" id="svg_52"/>
  <line x1="2238.73496" y1="118.10753" x2="2357.73496" y2="-0.89202" stroke="#000" id="svg_53"/>
  <line x1="2281.73496" y1="118.10753" x2="2400.73496" y2="-0.89202" stroke="#000" id="svg_54"/>
 </g>
</svg>