<svg version="1.1" xmlns="http://www.w3.org/2000/svg" width="428" height="1024" viewBox="0 0 428 1024">
<path stroke="rgba(234, 230, 227, 0.17)" fill="rgba(234, 230, 227, 0.05)" d="M0.355 23.563v174.931c0.26 9.384 6.257 17.727 14.86 21.117l380.887 149.121c15.121 5.475 31.284-5.996 31.284-22.16v-174.931c-0.26-9.385-6.256-17.728-14.861-21.117l-380.885-149.121c-15.121-5.475-31.285 5.735-31.285 22.159z"></path>
<path stroke="rgba(234, 230, 227, 0.17)" fill="rgba(234, 230, 227, 0.05)" d="M15.476 804.32c-9.125 3.651-15.121 12.254-15.121 21.9v174.149c0 16.685 16.685 28.156 32.067 21.898l380.103-148.861c9.126-3.649 15.121-12.252 15.121-21.898v-174.149c0-16.685-16.685-28.156-32.067-21.9l-380.103 148.861z"></path>
<path stroke="rgba(234, 230, 227, 0.17)" fill="rgba(234, 230, 227, 0.05)" d="M31.9 255.589c-15.121-5.475-31.545 5.996-31.545 22.158v174.932c0.26 9.386 6.257 17.727 14.86 21.117l380.887 149.382c15.121 5.475 31.284-5.996 31.284-22.16v-174.93c-0.26-9.386-6.256-17.729-14.861-21.117l-380.624-149.382z"></path>
</svg>