<svg version="1.1" xmlns="http://www.w3.org/2000/svg" width="1132" height="1024" viewBox="0 0 1132 1024">
<path fill="none" stroke-linejoin="miter" stroke-linecap="round" stroke-miterlimit="10" stroke-width="13.8129" stroke="#000" d="M658.003 937.549c0 0-457.431 243.4-545.796-127.255-39.155-164.030 35.716-241.018 252.659-451.346 147.627-143.394-21.695-256.363 30.161-325.678 0 0 17.726-33.070 88.894-23.546s199.482 101.063 119.318 273.559c-59.527 128.314-51.854 114.556-51.854 114.556"></path>
<path fill="none" stroke-linejoin="miter" stroke-linecap="round" stroke-miterlimit="10" stroke-width="13.8129" stroke="#000" d="M552.706 397.838c0 0 394.994-84.396 464.046 74.607 44.71 102.652-25.663 141.807-216.679 145.246s-195.513-47.886-175.671-109.001c26.721-82.279 132.811-85.455 284.67-2.381"></path>
<path fill="none" stroke-linejoin="miter" stroke-linecap="round" stroke-miterlimit="10" stroke-width="13.8129" stroke="#000" d="M692.396 615.575c0 0-89.951 38.361-30.954 112.175 43.123 53.971 264.3 31.748 299.752-43.388 24.868-52.913-23.81-78.311-23.81-78.311"></path>
<path fill="none" stroke-linejoin="miter" stroke-linecap="round" stroke-miterlimit="10" stroke-width="13.8129" stroke="#000" d="M679.168 750.767c0 0-51.854 56.616 19.578 102.387s300.281-17.197 246.045-138.367"></path>
<path fill="none" stroke-linejoin="miter" stroke-linecap="round" stroke-miterlimit="10" stroke-width="13.8129" stroke="#000" d="M705.094 856.858c-36.246 0.529-92.332 72.49-14.021 100.27 86.513 30.69 298.693-41.007 225.144-133.077"></path>
<path fill="none" stroke-linejoin="miter" stroke-linecap="round" stroke-miterlimit="10" stroke-width="13.8129" stroke="#000" d="M527.043 458.159c81.486 52.913 3.968 377.005-253.188 318.271"></path>
</svg>