<?xml version="1.0" standalone="no"?>
<!DOCTYPE svg PUBLIC "-//W3C//DTD SVG 20010904//EN"
 "http://www.w3.org/TR/2001/REC-SVG-20010904/DTD/svg10.dtd">
<svg version="1.0" xmlns="http://www.w3.org/2000/svg"
 width="2112.000000pt" height="2112.000000pt" viewBox="0 0 2112.000000 2112.000000"
 preserveAspectRatio="xMidYMid meet">
<metadata>
Created by potrace 1.14, written by Peter Selinger 2001-2017
</metadata>
<g transform="translate(0.000000,2112.000000) scale(0.100000,-0.100000)"
fill="#000000" stroke="none">
<path d="M8629 15020 c0 -11 -1 -36 -1 -55 0 -90 -10 -82 103 -81 55 1 104 -3
107 -8 9 -15 8 -266 -1 -266 -4 0 -4 -8 1 -17 8 -17 9 -263 1 -293 -3 -12 12
-15 92 -17 l96 -2 -1 290 c-1 159 1 295 4 302 3 8 36 12 105 12 l100 0 6 38
c3 21 2 40 -3 43 -4 3 -4 12 1 21 4 9 6 24 4 34 -5 18 -21 19 -309 19 -297 0
-304 0 -305 -20z"/>
<path d="M9325 14670 c0 -243 -3 -370 -10 -370 -5 0 -4 -4 4 -9 8 -5 51 -9 96
-9 l82 0 -2 264 c-1 145 -1 264 0 264 5 0 122 -323 126 -348 0 -4 5 -15 11
-25 5 -10 11 -26 13 -35 10 -42 38 -107 48 -114 15 -10 109 -10 122 0 6 4 16
25 23 47 14 41 47 134 62 170 4 11 13 36 20 55 7 19 16 44 21 55 5 11 10 27
11 35 2 8 5 17 8 20 3 3 14 32 24 65 11 33 23 64 26 68 4 5 7 -110 6 -255 l-1
-263 40 -2 c95 -5 126 -5 132 0 4 4 7 570 4 730 l-1 27 -133 0 -133 0 -13 -47
c-8 -27 -19 -59 -24 -73 -6 -14 -11 -27 -11 -30 -13 -55 -112 -328 -117 -323
-7 7 -66 160 -73 188 -2 6 -6 17 -9 25 -3 8 -25 70 -48 138 l-43 122 -131 0
-130 0 0 -370z"/>
<path d="M405 15022 c-2 -2 -23 -8 -46 -13 -144 -33 -297 -176 -334 -314 -4
-16 -10 -37 -13 -45 -13 -44 -8 -185 8 -238 16 -49 154 -408 179 -467 8 -17
20 -49 26 -65 4 -11 17 -46 25 -65 4 -11 20 -51 35 -90 15 -38 35 -88 45 -110
10 -22 21 -51 24 -65 4 -14 14 -38 21 -55 7 -16 45 -113 85 -215 39 -102 76
-196 82 -210 6 -14 14 -34 18 -45 4 -11 12 -31 18 -45 6 -14 25 -63 43 -110
18 -47 36 -89 41 -94 4 -6 8 -18 8 -28 0 -10 4 -26 9 -36 5 -9 14 -28 20 -42
20 -48 201 -511 201 -516 0 -3 7 -22 16 -42 9 -21 19 -46 24 -57 4 -11 12 -31
18 -45 14 -35 37 -94 38 -100 0 -3 5 -16 11 -30 35 -81 52 -130 45 -130 -4 0
-1 -4 6 -9 7 -4 15 -14 16 -22 2 -8 8 -27 14 -42 7 -16 12 -30 12 -31 0 -2 8
-21 17 -42 9 -22 18 -43 19 -49 1 -5 8 -23 15 -40 7 -16 13 -32 14 -35 1 -3 5
-14 10 -25 4 -11 32 -83 62 -160 30 -77 71 -178 90 -225 19 -48 35 -94 37
-104 1 -10 7 -21 12 -24 5 -4 10 -14 12 -22 3 -15 35 -104 52 -145 16 -36 47
-116 113 -285 35 -91 68 -174 72 -185 5 -11 9 -22 10 -25 1 -3 7 -18 14 -35
26 -61 52 -135 50 -137 -2 -2 4 -16 13 -33 16 -29 40 -89 123 -305 20 -52 40
-104 45 -115 5 -11 19 -47 31 -80 12 -33 25 -65 30 -71 5 -6 10 -19 12 -30 4
-21 11 -39 38 -101 11 -23 19 -47 19 -53 0 -5 4 -18 9 -28 17 -34 109 -263
115 -287 2 -5 8 -21 13 -35 6 -14 31 -77 56 -140 25 -63 80 -203 122 -310 42
-107 78 -199 79 -205 3 -10 20 -55 35 -90 15 -35 28 -69 46 -115 9 -25 23 -58
30 -75 14 -33 28 -67 29 -75 2 -8 27 -73 41 -105 8 -16 11 -33 9 -37 -3 -4 -1
-8 5 -8 6 0 15 -19 22 -42 6 -24 16 -52 22 -63 6 -11 12 -22 13 -25 0 -3 4
-14 8 -25 5 -11 15 -38 23 -60 8 -22 20 -51 26 -65 6 -14 11 -27 12 -30 1 -7
84 -220 95 -245 7 -18 20 -51 25 -65 1 -3 7 -18 13 -33 7 -16 12 -30 12 -33 0
-2 8 -23 19 -47 10 -23 24 -55 30 -72 6 -16 16 -43 22 -60 7 -16 13 -32 14
-35 1 -3 7 -18 14 -35 6 -16 24 -61 38 -100 15 -38 30 -74 35 -79 4 -6 8 -16
8 -23 0 -14 59 -145 69 -153 3 -3 12 -17 20 -32 8 -15 17 -25 21 -23 4 2 12
-6 19 -18 13 -24 82 -77 100 -77 6 0 11 -4 11 -9 0 -8 37 -24 53 -22 4 1 7 -3
7 -7 0 -5 6 -9 13 -10 6 0 23 -3 37 -7 55 -14 171 -15 1920 -16 1301 0 1829 3
1864 11 54 12 151 54 170 73 7 7 27 23 45 36 38 29 97 109 122 167 24 53 45
159 42 204 -2 19 -3 42 -4 50 -1 20 -18 91 -26 110 -4 8 -7 17 -8 20 -3 9 -41
105 -68 170 -5 14 -13 34 -18 45 -4 11 -31 81 -59 155 -58 151 -60 156 -89
222 -12 26 -21 54 -21 61 0 7 -5 18 -11 24 -6 6 -12 17 -13 24 -3 13 -6 23
-23 67 -3 9 -7 19 -8 22 -1 3 -7 18 -13 33 -7 16 -12 32 -12 36 0 4 -8 23 -17
42 -10 19 -18 39 -19 44 -2 10 -53 140 -80 202 -8 17 -14 34 -14 37 0 4 -7 23
-16 44 -10 20 -18 42 -19 47 -6 22 -57 152 -71 177 -8 14 -14 31 -14 38 0 6
-8 30 -19 53 -17 39 -32 75 -36 87 -1 3 -5 12 -8 20 -22 52 -51 136 -49 143 1
4 -2 7 -6 7 -4 0 -9 10 -9 22 -1 13 -7 24 -13 26 -5 2 -10 9 -10 16 0 7 -22
69 -49 137 -58 148 -64 162 -66 172 -2 4 -4 10 -5 15 -1 4 -2 10 -1 15 0 4 -3
7 -9 7 -5 0 -10 5 -10 12 0 13 -108 293 -141 365 -10 24 -19 47 -19 53 0 6 -4
18 -9 28 -5 9 -28 64 -50 122 -22 58 -46 119 -52 135 -7 17 -13 32 -14 35 -1
3 -6 16 -12 30 -6 14 -20 52 -32 85 -13 33 -29 74 -36 90 -14 32 -143 363
-215 550 -23 61 -53 134 -66 163 -13 29 -24 57 -24 61 0 5 -15 46 -34 90 -18
44 -31 82 -28 85 3 4 1 6 -5 6 -5 0 -10 6 -10 13 0 15 -109 292 -129 330 -8
15 -12 27 -8 27 5 0 3 5 -4 12 -7 7 -12 18 -12 25 0 7 -11 37 -25 67 -14 30
-25 57 -25 60 0 8 -89 236 -111 283 -10 24 -19 47 -19 53 0 6 -4 18 -10 28 -5
9 -35 82 -66 162 -31 80 -61 156 -67 170 -5 14 -9 29 -8 34 1 4 -4 15 -11 23
-7 8 -13 22 -14 31 -2 9 -7 25 -12 37 -21 46 -32 74 -57 140 -14 39 -32 84
-39 100 -8 17 -32 77 -54 135 -47 123 -162 416 -199 510 -14 36 -29 74 -33 85
-4 11 -15 36 -23 55 -8 19 -23 60 -33 90 -11 30 -22 57 -26 58 -5 2 -8 9 -8
15 0 13 -52 150 -60 157 -3 3 -6 12 -8 20 -1 8 -9 31 -16 50 -25 61 -29 75
-28 83 1 4 -3 7 -9 7 -5 0 -8 3 -6 8 3 4 -3 24 -13 44 -17 35 -31 81 -29 94 0
4 -3 10 -8 13 -5 3 -26 51 -47 106 -21 55 -42 109 -46 120 -22 50 -61 151 -65
165 -11 47 -117 290 -138 317 -56 74 -178 169 -229 179 -5 1 -9 2 -10 4 -3 2
-25 7 -68 17 -27 6 -3719 11 -3725 5z"/>
<path d="M11594 15014 c-25 -6 -46 -11 -48 -10 -6 2 -112 -50 -124 -62 -8 -7
-29 -24 -48 -38 -38 -29 -113 -139 -134 -194 -7 -19 -18 -48 -25 -65 -7 -16
-23 -57 -35 -90 -13 -33 -28 -73 -35 -90 -7 -16 -56 -142 -109 -280 -54 -137
-101 -259 -106 -270 -31 -79 -41 -104 -51 -130 -7 -16 -13 -32 -14 -35 -1 -3
-5 -14 -10 -25 -4 -11 -18 -45 -30 -75 -12 -30 -26 -64 -30 -75 -5 -11 -7 -24
-6 -29 1 -5 -5 -16 -13 -25 -8 -9 -15 -20 -15 -26 -2 -16 -23 -79 -31 -90 -4
-5 -17 -39 -30 -75 -12 -36 -29 -76 -37 -88 -8 -13 -12 -26 -9 -29 3 -4 2 -11
-3 -17 -5 -6 -23 -49 -41 -96 -17 -47 -36 -94 -41 -105 -8 -18 -30 -72 -34
-85 -4 -10 -17 -46 -25 -65 -4 -11 -18 -47 -30 -80 -13 -33 -29 -73 -36 -90
-17 -40 -55 -137 -59 -150 -1 -5 -9 -27 -19 -47 -9 -21 -16 -44 -16 -53 0 -8
-4 -15 -10 -15 -5 0 -10 -6 -10 -13 0 -8 -16 -54 -36 -103 -20 -49 -36 -95
-37 -101 0 -7 -4 -13 -9 -13 -4 0 -7 -3 -6 -7 3 -8 -61 -180 -88 -238 -8 -16
-30 -73 -49 -125 -20 -52 -42 -107 -51 -122 -8 -16 -12 -28 -8 -28 3 0 1 -6
-5 -13 -6 -8 -8 -17 -4 -20 3 -4 2 -7 -3 -7 -5 0 -10 -10 -11 -22 -1 -11 -7
-24 -13 -28 -7 -4 -11 -10 -10 -14 2 -7 -12 -49 -31 -91 -16 -37 -200 -510
-202 -520 -2 -5 -5 -14 -8 -20 -4 -5 -12 -28 -19 -50 -7 -22 -19 -49 -26 -60
-8 -11 -14 -26 -14 -33 0 -8 -7 -30 -16 -50 -24 -56 -29 -68 -79 -196 -25 -65
-47 -123 -48 -130 -1 -6 -5 -13 -8 -16 -3 -3 -16 -34 -29 -70 -12 -36 -29 -78
-36 -95 -7 -16 -34 -83 -59 -148 -25 -66 -51 -133 -59 -150 -8 -18 -20 -50
-26 -72 -7 -22 -17 -46 -23 -52 -5 -7 -6 -13 -1 -13 5 0 4 -4 -1 -8 -6 -4 -16
-25 -24 -47 -13 -39 -19 -53 -56 -143 -10 -23 -18 -49 -18 -57 0 -8 -4 -15 -8
-15 -4 0 -10 -12 -14 -27 -3 -15 -15 -46 -26 -70 -10 -23 -19 -49 -19 -57 0
-8 -4 -17 -9 -20 -5 -3 -12 -18 -16 -33 -3 -15 -14 -45 -24 -68 -10 -22 -24
-56 -31 -75 -18 -51 -40 -102 -50 -122 -6 -10 -10 -23 -10 -29 0 -6 -6 -25
-14 -42 -8 -18 -31 -75 -51 -127 -19 -52 -40 -104 -45 -115 -25 -57 -123 -312
-123 -322 0 -7 -4 -13 -8 -13 -3 0 -9 -10 -12 -22 -3 -13 -18 -57 -35 -98 -16
-41 -49 -127 -73 -190 -24 -63 -47 -116 -51 -118 -5 -2 -8 -10 -8 -18 0 -8
-20 -65 -45 -126 -25 -62 -45 -118 -45 -125 0 -7 -5 -13 -11 -13 -5 0 -8 -4
-5 -8 3 -5 -1 -19 -7 -33 -7 -13 -24 -53 -37 -89 -13 -36 -28 -68 -33 -71 -5
-3 -8 -10 -8 -15 1 -17 -9 -47 -44 -129 -14 -33 -109 -277 -110 -285 -1 -3 -6
-16 -12 -30 -15 -33 -37 -93 -39 -102 -1 -5 -2 -9 -4 -10 -5 -7 -11 -48 -17
-105 -5 -59 10 -176 26 -198 4 -5 14 -26 21 -45 28 -73 120 -169 208 -216 56
-30 93 -41 162 -50 59 -7 3643 -7 3695 1 22 3 54 10 70 16 71 27 105 43 105
51 0 4 5 8 10 8 6 0 16 4 23 10 96 79 145 151 193 285 9 28 21 55 26 61 4 6 9
19 11 30 2 10 10 33 17 49 7 17 14 32 14 35 1 6 61 158 81 205 7 17 27 68 45
115 17 47 45 117 60 155 50 121 92 230 94 240 1 6 5 15 8 21 4 6 17 37 29 70
12 32 26 70 32 84 6 14 11 28 12 33 2 4 4 9 5 12 1 3 3 8 5 13 1 4 6 18 12 32
6 14 36 90 67 170 31 80 61 153 66 162 6 10 10 22 10 27 0 4 10 30 22 57 12
27 22 54 23 59 1 6 6 21 12 35 6 14 36 90 67 170 31 80 61 153 66 162 6 10 10
26 10 37 0 10 7 24 15 31 9 7 14 15 11 17 -2 3 5 25 16 49 10 25 21 53 23 62
3 9 27 73 55 142 65 158 81 202 82 218 1 6 5 12 10 12 4 0 8 6 8 13 0 11 87
242 110 292 5 11 34 84 65 163 30 78 80 206 110 285 31 78 59 151 64 162 5 11
16 40 26 65 10 25 21 54 26 65 4 11 37 97 74 190 36 94 70 179 74 190 5 11 17
40 26 65 10 25 24 59 31 77 8 17 14 36 14 42 0 6 4 19 9 29 17 34 66 155 117
292 15 41 34 85 42 97 8 12 11 27 8 32 -4 5 -2 12 2 15 5 3 22 40 37 83 16 43
35 89 42 103 7 14 13 28 13 31 0 4 8 24 17 45 9 22 17 41 18 44 4 19 32 93 50
135 13 28 33 77 45 110 12 33 31 79 41 102 11 24 19 47 19 52 0 5 16 46 35 90
19 45 34 83 35 86 0 3 7 21 15 41 8 20 15 38 15 40 0 1 5 15 12 31 6 15 12 30
12 33 1 3 5 11 9 17 5 7 10 21 12 32 2 10 13 39 24 64 12 25 21 50 21 56 0 5
6 22 14 38 16 30 77 181 81 198 1 6 7 24 14 40 7 17 23 57 36 90 13 33 29 74
36 90 7 17 13 32 13 35 1 3 16 43 35 90 18 47 49 126 68 175 19 50 41 104 49
122 8 17 14 38 14 47 0 9 3 16 8 16 4 0 13 19 20 42 7 23 20 58 29 77 9 20 17
43 19 51 2 8 7 23 13 35 19 39 64 160 64 172 0 7 4 13 9 13 4 0 8 9 8 20 0 11
5 20 12 20 6 0 9 3 6 6 -5 4 18 72 51 149 5 11 19 47 32 80 12 33 30 79 41
102 10 23 18 46 18 51 0 4 9 28 21 51 11 24 21 51 22 62 1 10 4 19 7 19 4 0 7
6 7 13 0 6 3 26 7 42 10 51 8 149 -4 196 -7 24 -13 49 -14 54 -8 38 -68 129
-120 180 -61 61 -132 102 -216 126 -62 18 -3707 21 -3776 3z"/>
<path d="M16847 15024 c-1 -1 -22 -4 -45 -8 -50 -7 -155 -51 -192 -81 -48 -39
-119 -116 -125 -135 -4 -11 -11 -20 -17 -20 -6 0 -9 -3 -6 -6 4 -3 -6 -33 -21
-67 -28 -63 -43 -98 -46 -107 -5 -22 -20 -61 -35 -95 -10 -22 -35 -85 -56
-140 -20 -55 -45 -119 -55 -142 -11 -23 -19 -45 -19 -48 0 -4 -6 -21 -14 -38
-15 -35 -60 -149 -62 -157 0 -3 -4 -14 -9 -25 -32 -77 -97 -243 -100 -255 -3
-14 -26 -69 -103 -260 -15 -36 -27 -67 -28 -70 0 -3 -4 -14 -9 -25 -4 -11 -33
-83 -62 -160 -30 -77 -60 -153 -67 -170 -21 -49 -41 -100 -41 -105 0 -3 -7
-16 -15 -30 -7 -14 -12 -25 -11 -25 1 0 -3 -13 -10 -30 -7 -16 -13 -37 -15
-45 -3 -15 -16 -45 -40 -93 -8 -16 -12 -33 -8 -38 3 -5 0 -9 -7 -9 -7 0 -10
-3 -7 -6 3 -3 -9 -41 -28 -84 -19 -43 -34 -85 -34 -94 0 -9 -5 -16 -10 -16 -6
0 -9 -3 -8 -7 1 -5 -8 -35 -20 -68 -22 -60 -28 -72 -53 -130 -7 -16 -13 -32
-13 -35 -1 -3 -4 -9 -7 -15 -4 -5 -14 -35 -24 -65 -10 -30 -21 -59 -25 -65 -4
-5 -17 -39 -30 -75 -13 -36 -28 -71 -33 -77 -5 -7 -6 -13 -3 -13 4 0 1 -12 -7
-27 -8 -16 -38 -86 -65 -158 -107 -275 -183 -471 -192 -490 -4 -11 -41 -103
-80 -205 -40 -102 -90 -230 -112 -285 -22 -55 -41 -104 -42 -110 -2 -5 -10
-28 -20 -50 -10 -22 -19 -44 -20 -50 -1 -5 -5 -16 -9 -22 -5 -7 -5 -13 -1 -13
3 0 0 -7 -7 -16 -7 -9 -14 -21 -15 -28 -3 -11 -61 -165 -85 -221 -7 -16 -13
-32 -14 -35 -1 -3 -7 -18 -14 -35 -6 -16 -19 -50 -29 -75 -9 -25 -22 -56 -29
-70 -7 -14 -13 -33 -13 -42 0 -10 -4 -18 -10 -18 -5 0 -9 -3 -8 -7 3 -7 -12
-51 -33 -98 -5 -11 -15 -38 -23 -60 -15 -45 -111 -289 -125 -320 -5 -11 -21
-49 -34 -85 -13 -36 -28 -74 -32 -85 -5 -11 -9 -22 -10 -25 -1 -3 -5 -14 -10
-25 -39 -95 -97 -243 -100 -255 -2 -8 -11 -33 -21 -55 -10 -22 -18 -42 -19
-45 -1 -6 -112 -293 -126 -325 -38 -91 -76 -195 -71 -195 4 0 2 -4 -3 -8 -9
-6 -51 -105 -58 -137 -2 -5 -7 -17 -12 -25 -5 -8 -11 -22 -12 -31 -1 -9 -16
-46 -32 -82 -17 -37 -27 -67 -24 -67 4 0 2 -5 -5 -12 -7 -7 -12 -17 -12 -24 0
-6 -10 -33 -22 -60 -12 -27 -23 -51 -23 -54 -2 -6 -3 -10 -52 -135 -19 -49
-41 -103 -48 -120 -7 -16 -17 -42 -20 -58 -4 -15 -11 -30 -16 -33 -5 -3 -9
-12 -9 -21 0 -8 -7 -29 -15 -46 -26 -59 -128 -322 -128 -334 0 -7 -4 -13 -9
-13 -4 0 -8 -6 -8 -14 0 -7 -14 -46 -30 -86 -40 -96 -42 -110 -46 -211 -3
-102 22 -201 64 -251 9 -10 12 -18 9 -18 -12 0 53 -72 109 -120 35 -30 125
-75 174 -87 54 -12 290 -14 1915 -14 1225 0 1827 3 1863 10 124 25 260 127
322 242 17 32 30 60 30 61 -1 3 29 77 69 173 5 11 17 43 27 70 9 28 24 66 32
85 9 19 17 40 18 45 1 6 21 55 44 110 22 55 41 102 42 105 0 3 4 14 8 25 4 11
18 45 29 75 12 30 26 64 30 75 5 11 17 40 26 65 9 25 22 56 28 70 5 14 11 30
13 35 1 6 28 73 59 150 31 77 58 145 59 150 2 6 8 24 15 40 6 17 25 66 42 110
30 79 53 134 70 167 5 10 9 23 9 29 0 6 6 25 14 42 8 18 26 61 39 97 14 36 31
79 38 95 7 17 13 32 13 35 1 3 25 66 54 140 29 74 65 164 79 200 14 36 29 74
34 85 5 11 34 85 64 165 72 185 193 496 210 535 28 68 60 150 60 156 0 3 10
28 22 55 22 50 137 344 139 354 1 5 2 7 50 128 19 45 34 89 34 97 0 8 4 15 8
15 4 0 13 20 20 44 8 23 20 55 28 71 7 15 11 31 8 36 -3 5 -1 9 3 9 4 0 19 30
32 68 13 37 31 77 39 90 8 12 12 22 9 22 -3 0 8 33 24 73 17 39 32 77 33 82 3
11 4 12 57 145 21 52 63 160 94 240 31 80 62 156 67 170 6 14 12 30 13 35 2 6
12 33 23 60 12 28 46 114 77 193 30 78 79 204 109 280 30 75 70 180 90 232 20
52 41 104 45 115 5 11 19 45 31 75 11 30 25 64 29 75 5 11 23 58 41 105 17 47
36 93 41 102 5 10 9 25 9 33 0 8 4 15 8 15 5 0 9 6 9 13 2 18 44 131 54 141 5
6 9 16 9 22 0 7 5 25 12 41 6 15 11 31 10 36 -1 4 3 7 8 7 6 0 10 5 10 12 0
11 146 393 158 413 4 6 8 18 9 28 2 10 15 44 30 75 14 31 28 63 29 71 1 7 12
35 23 62 12 26 21 55 21 63 0 9 4 16 10 16 5 0 9 3 8 8 -1 7 4 24 22 67 46
112 103 263 103 273 0 6 4 12 9 12 4 0 7 3 6 8 -1 4 4 21 11 37 7 17 14 35 15
40 1 6 5 15 8 21 4 6 16 37 28 70 12 32 25 68 30 79 12 29 23 66 26 95 4 35 6
94 4 103 -1 4 -2 22 -2 40 -1 17 -4 37 -8 42 -4 6 -13 31 -20 58 -7 26 -15 47
-19 47 -3 0 -13 15 -20 33 -19 43 -127 148 -176 171 -22 11 -41 17 -41 15 -1
-2 -10 3 -20 12 -11 9 -46 20 -79 25 -48 6 -3691 14 -3698 8z"/>
</g>
</svg>
