<?xml version="1.0" encoding="utf-8"?>
<svg viewBox="0 0 1132 1024" xmlns="http://www.w3.org/2000/svg" xmlns:xlink="http://www.w3.org/1999/xlink" version="1.1">
<title></title>
<g id="icomoon-ignore">
</g>
<path fill="none" stroke-linejoin="miter" stroke-linecap="round" stroke-miterlimit="10" stroke-width="13.8129" stroke="#BFBFBF" d="M658.004 937.549c0 0-457.431 243.401-545.797-127.255-39.155-164.030 35.716-241.018 252.66-451.347 147.627-143.394-21.695-256.364 30.161-325.679 0 0 17.726-33.070 88.894-23.546s199.483 101.063 119.318 273.56c-59.527 128.314-51.854 114.557-51.854 114.557"></path>
<path fill="none" stroke-linejoin="miter" stroke-linecap="round" stroke-miterlimit="10" stroke-width="13.8129" stroke="#BFBFBF" d="M552.706 397.837c0 0 394.994-84.396 464.046 74.607 44.71 102.653-25.663 141.807-216.68 145.247s-195.514-47.886-175.672-109.001c26.721-82.279 132.811-85.456 284.67-2.381"></path>
<path fill="none" stroke-linejoin="miter" stroke-linecap="round" stroke-miterlimit="10" stroke-width="13.8129" stroke="#BFBFBF" d="M692.397 615.575c0 0-89.951 38.361-30.954 112.175 43.124 53.971 264.301 31.748 299.752-43.388 24.868-52.913-23.81-78.311-23.81-78.311"></path>
<path fill="none" stroke-linejoin="miter" stroke-linecap="round" stroke-miterlimit="10" stroke-width="13.8129" stroke="#BFBFBF" d="M679.169 750.767c0 0-51.854 56.616 19.578 102.387s300.282-17.197 246.046-138.367"></path>
<path fill="none" stroke-linejoin="miter" stroke-linecap="round" stroke-miterlimit="10" stroke-width="13.8129" stroke="#BFBFBF" d="M705.094 856.858c-36.246 0.529-92.332 72.49-14.021 100.27 86.513 30.69 298.694-41.007 225.144-133.078"></path>
<path fill="none" stroke-linejoin="miter" stroke-linecap="round" stroke-miterlimit="10" stroke-width="13.8129" stroke="#BFBFBF" d="M527.043 458.159c81.487 52.913 3.968 377.006-253.188 318.271"></path>
</svg>
